<?xml version="1.0" encoding="utf-8"?>
<!-- Generator: Adobe Illustrator 21.0.2, SVG Export Plug-In . SVG Version: 6.00 Build 0)  -->
<svg version="1.1" id="speech" xmlns="http://www.w3.org/2000/svg" xmlns:xlink="http://www.w3.org/1999/xlink" x="0px" y="0px"
	 viewBox="0 0 128 128" style="enable-background:new 0 0 128 128;" xml:space="preserve">
<style type="text/css">
	.st0{fill:#3DB39E;}
	.st1{fill:#0C508E;}
	.st2{fill:#F99900;}
	.st3{fill:#D6742B;}
	.st4{fill:#6B3C1C;}
	.st5{fill:#3AD0F9;}
	.st6{fill:#FFFFFF;}
	.st7{opacity:0.5;fill:#FFFFFF;}
	.st8{fill:#00B3F9;}
</style>
<g>
	<circle class="st0" cx="64" cy="64" r="64"/>
	<path class="st1" d="M55,107H35c-0.6,0-1-0.4-1-1s0.5-1,1-1h20c0.6,0,1,0.4,1,1S55.5,107,55,107z"/>
	<path class="st1" d="M93,107H65c-0.6,0-1-0.4-1-1s0.5-1,1-1h28c0.6,0,1,0.4,1,1S93.5,107,93,107z"/>
	<path class="st2" d="M63.6,71.1c0-12.1-12.1-21.9-27.1-21.9C21.6,49.1,9.5,59,9.5,71.1C9.5,83.2,21.6,93,36.5,93
		c1.3,0,2.6-0.1,3.9-0.2c5.6,4.4,11.3,5.5,11.4,5.3c-2-2-3.2-4.6-3.9-7.1C57.1,87.5,63.6,79.9,63.6,71.1z"/>
	<path class="st3" d="M63.6,71.1c0-1.8-0.3-3.5-0.8-5.2c0,0.2,0,0.4,0,0.6c0,10.4-11.7,18.9-26.1,18.9c-14.4,0-26.1-8.5-26.1-18.9
		c0-0.9,0.1-1.7,0.2-2.6c-1,2.3-1.5,4.7-1.5,7.2C9.5,83.2,21.6,93,36.5,93c1.3,0,2.6-0.1,3.9-0.2c5.6,4.4,11.3,5.5,11.4,5.3
		c-2-2-3.2-4.6-3.9-7.1C57.1,87.5,63.6,79.9,63.6,71.1z"/>
	<path class="st4" d="M51.6,99L51.6,99c-1,0-6.4-1.3-11.7-5.3C38.6,93.8,36.1,94,35,94C19.4,94,8,83.6,8,71c0-12.7,12.7-23,28.3-23
		c15.6,0,28.3,10.3,28.3,23c0,8.7-6.1,16.6-15.6,20.5c0.8,2.4,2,4.3,3.4,5.8c0.3,0.3,0.4,0.8,0.2,1.2C52.3,98.8,51.9,99,51.6,99z
		 M40.2,91.7c0.2,0,0.4,0.1,0.6,0.2c3.1,2.4,6.2,3.7,8.2,4.5c-1-1.5-1.7-3.2-2.3-5.2c-0.2-0.5,0.1-1,0.6-1.2
		c9.3-3.4,15.2-10.9,15.2-19c0-11.6-11.8-21-26.3-21C21.8,50,10,59.4,10,71c0,11.6,11.5,21,26,21c1.1,0,2.6-0.2,4.1-0.3
		C40.1,91.7,40.1,91.7,40.2,91.7z"/>
	<path class="st5" d="M127.7,58c-1.4-15.2-8.2-28.9-18.4-39.2c-6-2.5-14.4-4.4-21.3-4.4c-22.9,0-41.5,14.8-41.5,33
		c0,13.3,9.9,24.8,24.2,30c-1.1,3.7-2.9,7.5-5.8,10.5c0.1,0.2,8.5-1.4,16.9-7.9c2.1,0.2,4.2,0.4,6.3,0.4
		C105.7,80.5,121.7,70.5,127.7,58z"/>
	<path class="st6" d="M24.5,68c-1.7,0-3.1,1.4-3.1,3.1c0,1.7,1.4,3.1,3.1,3.1c1.7,0,3.1-1.4,3.1-3.1C27.6,69.4,26.2,68,24.5,68z
		 M35.5,68c-1.7,0-3.1,1.4-3.1,3.1c0,1.7,1.4,3.1,3.1,3.1s3.1-1.4,3.1-3.1C38.7,69.4,37.3,68,35.5,68z M46.5,68
		c-1.7,0-3.1,1.4-3.1,3.1c0,1.7,1.4,3.1,3.1,3.1s3.1-1.4,3.1-3.1C49.7,69.4,48.3,68,46.5,68z"/>
	<path class="st6" d="M69.9,42.9c-2.8,0-5,2.3-5,5c0,2.8,2.3,5,5,5c2.8,0,5-2.3,5-5C74.9,45.1,72.7,42.9,69.9,42.9z M87.5,42.9
		c-2.8,0-5,2.3-5,5c0,2.8,2.3,5,5,5c2.8,0,5-2.3,5-5C92.5,45.1,90.3,42.9,87.5,42.9z M105.1,42.9c-2.8,0-5,2.3-5,5c0,2.8,2.3,5,5,5
		c2.8,0,5-2.3,5-5C110.1,45.1,107.9,42.9,105.1,42.9z"/>
	<path class="st1" d="M113.7,13.2c-0.3,0-0.5-0.1-0.7-0.3c-0.4-0.4-0.4-1,0-1.4l6.4-6.4c0.4-0.4,1-0.4,1.4,0c0.4,0.4,0.4,1,0,1.4
		l-6.4,6.4C114.2,13.1,114,13.2,113.7,13.2z"/>
	<path class="st1" d="M108.5,10.2c-0.1,0-0.1,0-0.2,0c-0.5-0.1-0.9-0.6-0.8-1.2l1.3-6.4c0.1-0.5,0.6-0.9,1.2-0.8
		c0.5,0.1,0.9,0.6,0.8,1.2l-1.3,6.4C109.3,9.9,108.9,10.2,108.5,10.2z"/>
	<path class="st1" d="M116.7,18.5c-0.5,0-0.9-0.3-1-0.8c-0.1-0.5,0.2-1.1,0.8-1.2l6.4-1.3c0.5-0.1,1.1,0.2,1.2,0.8
		c0.1,0.5-0.2,1.1-0.8,1.2l-6.4,1.3C116.9,18.5,116.8,18.5,116.7,18.5z"/>
	<path class="st1" d="M104,54c-3.3,0-6-2.7-6-6c0-3.3,2.7-6,6-6c3.3,0,6,2.7,6,6C110,51.3,107.3,54,104,54z M104,44
		c-2.2,0-4,1.8-4,4c0,2.2,1.8,4,4,4c2.2,0,4-1.8,4-4C108,45.8,106.2,44,104,44z M87,54c-3.3,0-6-2.7-6-6c0-3.3,2.7-6,6-6
		c3.3,0,6,2.7,6,6C93,51.3,90.3,54,87,54z M87,44c-2.2,0-4,1.8-4,4c0,2.2,1.8,4,4,4c2.2,0,4-1.8,4-4C91,45.8,89.2,44,87,44z M70,54
		c-3.3,0-6-2.7-6-6c0-3.3,2.7-6,6-6s6,2.7,6,6C76,51.3,73.3,54,70,54z M70,44c-2.2,0-4,1.8-4,4c0,2.2,1.8,4,4,4s4-1.8,4-4
		C74,45.8,72.2,44,70,44z"/>
	<path class="st4" d="M46,75c-2.2,0-4-1.8-4-4c0-2.2,1.8-4,4-4s4,1.8,4,4C50,73.2,48.2,75,46,75z M46,69c-1.1,0-2,0.9-2,2
		c0,1.1,0.9,2,2,2s2-0.9,2-2C48,69.9,47.1,69,46,69z M35,75c-2.2,0-4-1.8-4-4c0-2.2,1.8-4,4-4s4,1.8,4,4C39,73.2,37.2,75,35,75z
		 M35,69c-1.1,0-2,0.9-2,2c0,1.1,0.9,2,2,2s2-0.9,2-2C37,69.9,36.1,69,35,69z M24,75c-2.2,0-4-1.8-4-4c0-2.2,1.8-4,4-4
		c2.2,0,4,1.8,4,4C28,73.2,26.2,75,24,75z M24,69c-1.1,0-2,0.9-2,2c0,1.1,0.9,2,2,2c1.1,0,2-0.9,2-2C26,69.9,25.1,69,24,69z"/>
	<path class="st7" d="M87,99c-2.2,0-4-1.8-4-4c0-2.2,1.8-4,4-4c2.2,0,4,1.8,4,4C91,97.2,89.2,99,87,99z M87,93c-1.1,0-2,0.9-2,2
		c0,1.1,0.9,2,2,2c1.1,0,2-0.9,2-2C89,93.9,88.1,93,87,93z"/>
	<path class="st7" d="M39,30c-2.2,0-4-1.8-4-4c0-2.2,1.8-4,4-4c2.2,0,4,1.8,4,4C43,28.2,41.2,30,39,30z M39,24c-1.1,0-2,0.9-2,2
		c0,1.1,0.9,2,2,2c1.1,0,2-0.9,2-2C41,24.9,40.1,24,39,24z"/>
	<path class="st7" d="M27,42.4c0-0.4-0.4-0.8-1-0.9l-1.9-0.3c-0.5-0.1-1.1-0.6-1.1-1.1l-0.3-1.9c-0.1-0.5-0.5-1-0.9-1
		c-0.4,0-0.8,0.4-0.9,1l-0.3,1.9c-0.1,0.5-0.6,1.1-1.1,1.1l-1.9,0.3c-0.5,0.1-1,0.5-1,0.9c0,0.4,0.4,0.8,1,0.9l1.9,0.3
		c0.5,0.1,1.1,0.6,1.1,1.1l0.3,1.9c0.1,0.5,0.5,1,0.9,1c0.4,0,0.8-0.4,0.9-1l0.3-2.1c0.1-0.5,0.6-1,1.1-1.1l1.8-0.1
		C26.5,43.2,27,42.8,27,42.4z"/>
	<path class="st7" d="M59.4,12.9c0-0.4-0.4-0.8-1-0.9l-1.9-0.3c-0.5-0.1-1.1-0.6-1.1-1.1l-0.3-1.9c-0.1-0.5-0.5-1-0.9-1
		s-0.8,0.4-0.9,1l-0.3,1.9c-0.1,0.5-0.6,1.1-1.1,1.1L50.2,12c-0.5,0.1-1,0.5-1,0.9c0,0.4,0.4,0.8,1,0.9L52,14
		c0.5,0.1,1.1,0.6,1.1,1.1l0.3,1.9c0.1,0.5,0.5,1,0.9,1s0.8-0.4,0.9-1l0.3-2.1c0.1-0.5,0.6-1,1.1-1.1l1.8-0.1
		C59,13.6,59.4,13.3,59.4,12.9z"/>
	<path class="st7" d="M110,90.7c0-0.4-0.4-0.8-1-0.9l-1.9-0.3c-0.5-0.1-1.1-0.6-1.1-1.1l-0.3-1.9c-0.1-0.5-0.5-1-0.9-1
		c-0.4,0-0.8,0.4-0.9,1l-0.3,1.9c-0.1,0.5-0.6,1.1-1.1,1.1l-1.9,0.3c-0.5,0.1-1,0.5-1,0.9c0,0.4,0.4,0.8,1,0.9l1.9,0.3
		c0.5,0.1,1.1,0.6,1.1,1.1l0.3,1.9c0.1,0.5,0.5,1,0.9,1c0.4,0,0.8-0.4,0.9-1l0.3-2.1c0.1-0.5,0.6-1,1.1-1.1l1.8-0.1
		C109.5,91.4,110,91.1,110,90.7z"/>
	<path class="st6" d="M107,23c-0.2,0-0.4-0.1-0.6-0.2c0,0-2.8-2-9.5-2.9c-0.6-0.1-0.9-0.6-0.9-1.1c0.1-0.5,0.6-0.9,1.2-0.8
		c7.3,0.9,10.3,3.2,10.5,3.3c0.4,0.3,0.5,0.9,0.2,1.3C107.6,22.9,107.3,23,107,23z"/>
	<path class="st8" d="M127.8,58.6c-0.3-4.2-1.1-8.3-2.2-12.2c-6,12.2-21.4,20.9-38.3,20.9c-19.9,0-36.5-11.2-40-26.1
		c-0.5,2-0.7,4-0.7,6.2c0,13.3,9.9,24.8,24.2,30c-1.1,3.7-2.9,7.5-5.8,10.5c0.1,0.2,8.5-1.4,16.9-7.9c2.1,0.2,4.2,0.4,6.3,0.4
		C104.7,80.5,120.9,70.3,127.8,58.6z"/>
	<path class="st6" d="M59.1,32c-0.2,0-0.5-0.1-0.7-0.3c-0.4-0.4-0.4-1,0-1.4c4.7-5,13.2-11.2,27.7-12.1c2.1-0.1,4.1-0.2,6-0.1
		c0.5,0,1,0.5,0.9,1.1c0,0.6-0.5,1-1,1c-1.8-0.1-3.8,0-5.8,0.1c-13.8,0.9-22,6.8-26.4,11.5C59.6,31.9,59.3,32,59.1,32z"/>
	<path class="st6" d="M16.7,64c-0.2,0-0.4-0.1-0.6-0.2c-0.4-0.4-0.5-1-0.2-1.5c0.3-0.4,7.7-10,20-10.3c0.5,0,1,0.5,1,1
		c0,0.6-0.4,1.1-1,1.1c-11.4,0.3-18.4,9.4-18.5,9.5C17.3,63.9,17,64,16.7,64z"/>
	<path class="st1" d="M127.9,59.8c-0.1-1.4-0.2-2.8-0.4-4.2C122,69.2,106,80,88,80c-2.1,0-4.4-0.7-6.5-0.9c-0.3,0-0.5,0-0.7,0.2
		c-5.4,4.2-10.6,6.2-13.7,7.1c1.8-2.4,3.2-5.3,4.2-8.7c0.2-0.5-0.1-1.1-0.6-1.2C56.3,71.2,47,59.7,47,47.2C47,29.5,65.3,15,87.8,15
		c7.9,0,16.8,2.1,23.8,5.8c-1.2-1.3-2.5-2.6-3.8-3.9c-6.6-2.7-13.8-4-20-4C64.2,13,45,28.4,45,47.2c0,13.1,9.4,25.1,24.1,30.8
		c-1.3,3.8-3,6.9-5.3,9.3c-0.3,0.3-0.4,0.8-0.1,1.2c0.2,0.3,0.6,0.5,1,0.5c0.9,0,8.9-1.6,17.2-7.9c2,0.2,4.3,0.9,6.3,0.9
		C105.2,82,119.7,73.6,127.9,59.8z"/>
</g>
</svg>
