<?xml version="1.0" encoding="utf-8"?>
<!-- Generator: Adobe Illustrator 21.0.2, SVG Export Plug-In . SVG Version: 6.00 Build 0)  -->
<svg version="1.1" id="heart" xmlns="http://www.w3.org/2000/svg" xmlns:xlink="http://www.w3.org/1999/xlink" x="0px" y="0px"
	 viewBox="0 0 128 128" style="enable-background:new 0 0 128 128;" xml:space="preserve">
<style type="text/css">
	.st0{fill:#FBD000;}
	.st1{fill:#FFFFFF;}
	.st2{fill:#EA291C;}
	.st3{fill:#CC1612;}
	.st4{fill:#A81000;}
	.st5{opacity:0.5;fill:#FFFFFF;}
</style>
<g>
	<circle class="st0" cx="64" cy="64" r="64"/>
	<path class="st1" d="M33,103c-2.2,0-4-1.8-4-4c0-2.2,1.8-4,4-4c2.2,0,4,1.8,4,4C37,101.2,35.2,103,33,103z M33,96.9
		c-1.2,0-2.1,1-2.1,2.1c0,1.2,1,2.1,2.1,2.1c1.2,0,2.1-1,2.1-2.1C35.1,97.8,34.2,96.9,33,96.9z"/>
	<path class="st1" d="M108,87c-2.2,0-4-1.8-4-4c0-2.2,1.8-4,4-4c2.2,0,4,1.8,4,4C112,85.2,110.2,87,108,87z M108,80.9
		c-1.2,0-2.1,1-2.1,2.1c0,1.2,1,2.1,2.1,2.1c1.2,0,2.1-1,2.1-2.1C110.1,81.8,109.2,80.9,108,80.9z"/>
	<path class="st1" d="M95,32c-2.2,0-4-1.8-4-4c0-2.2,1.8-4,4-4c2.2,0,4,1.8,4,4C99,30.2,97.2,32,95,32z M95,25.9
		c-1.2,0-2.1,1-2.1,2.1c0,1.2,1,2.1,2.1,2.1c1.2,0,2.1-1,2.1-2.1C97.1,26.8,96.2,25.9,95,25.9z"/>
	<path class="st1" d="M34,32c-2.2,0-4-1.8-4-4c0-2.2,1.8-4,4-4c2.2,0,4,1.8,4,4C38,30.2,36.2,32,34,32z M34,25.9
		c-1.2,0-2.1,1-2.1,2.1c0,1.2,1,2.1,2.1,2.1c1.2,0,2.1-1,2.1-2.1C36.1,26.8,35.2,25.9,34,25.9z"/>
	<path class="st1" d="M93.1,105.9c0-0.4-0.4-0.8-1-0.9l-1.9-0.3c-0.5-0.1-1.1-0.6-1.1-1.1l-0.3-1.9c-0.1-0.5-0.5-1-0.9-1
		c-0.4,0-0.8,0.4-0.9,1l-0.3,1.9c-0.1,0.5-0.6,1.1-1.1,1.1l-1.9,0.3c-0.5,0.1-1,0.5-1,0.9c0,0.4,0.4,0.8,1,0.9l1.9,0.3
		c0.5,0.1,1.1,0.6,1.1,1.1l0.3,1.9c0.1,0.5,0.5,1,0.9,1c0.4,0,0.8-0.4,0.8-1l0.3-2.1c0.1-0.5,0.6-1,1.1-1.1l1.8-0.1
		C92.7,106.6,93.1,106.3,93.1,105.9z"/>
	<path class="st1" d="M72.8,20.7c0-0.4-0.4-0.8-1-0.9L70,19.6c-0.5-0.1-1.1-0.6-1.1-1.1l-0.3-1.9c-0.1-0.5-0.5-1-0.9-1
		c-0.4,0-0.8,0.4-0.9,1l-0.3,1.9c-0.1,0.5-0.6,1.1-1.1,1.1l-1.9,0.3c-0.5,0.1-1,0.5-1,0.9s0.4,0.8,1,0.9l1.9,0.3
		c0.5,0.1,1.1,0.6,1.1,1.1l0.3,1.9c0.1,0.5,0.5,1,0.9,1c0.4,0,0.8-0.4,0.8-1l0.3-2.1c0.1-0.5,0.6-1,1.1-1.1l1.8-0.1
		C72.4,21.4,72.8,21.1,72.8,20.7z"/>
	<path class="st2" d="M82.7,35.3c-12.3-1.4-18,8.6-19,9.9c-0.9-1.3-5.6-11.2-19-9.9c-13.8,1.4-18.9,12.1-18.9,21
		c0,8.9,3.7,17.5,12.7,26.8c10.2,10.4,23.8,18,25.3,18c1.4,0,14.8-7.6,25-18c9-9.2,12.7-17.8,12.7-26.8
		C101.7,47.4,96.5,36.9,82.7,35.3z"/>
	<path class="st3" d="M88.9,75.2c-10.2,9.4-23.5,16.4-25,16.4c-1.4,0-15.1-6.9-25.3-16.4c-8-7.4-11.8-14.4-12.6-21.5
		c-0.1,0.9-0.2,1.7-0.2,2.6c0,8.9,3.7,17.5,12.7,26.8c10.2,10.4,23.8,18,25.3,18c1.4,0,14.8-7.6,25-18c9-9.2,12.7-17.8,12.7-26.8
		c0-0.9-0.1-1.7-0.2-2.6C100.7,60.8,96.9,67.8,88.9,75.2z"/>
	<path class="st4" d="M64.2,102c-1.9,0-15.8-7.8-26.1-18.3C29.2,74.6,25,65.9,25,56.3c0-10.2,6.8-21,19.9-21.9
		c0.6,0,1.3-0.1,1.9-0.1c7.3,0,13.1,3.1,17.2,9.1c4.4-6.1,10-9.2,16.7-9.2c0.8,0,1.6,0,2.4,0.1C97.8,36,103,47.2,103,56.3
		c0,9.6-4.2,18.4-13.1,27.4C80.1,93.7,66.3,102,64.2,102z M46.8,36.3c-0.6,0-1.1,0-1.7,0.1c-8.7,0.6-18,7.1-18,19.9
		c0,9.1,4,17.4,12.5,26c10.2,10.3,23,17.3,24.6,17.7c1.9-0.4,14.6-7.8,24.3-17.7c8.5-8.7,12.5-16.9,12.5-26c0-8.3-4.7-18.4-18.1-20
		c-7.2-0.8-13.3,2.3-17.8,9.1c-0.1,0.2-0.2,0.3-0.3,0.4c-0.4,0.5-1.3,0.5-1.6,0c-0.1-0.1-0.2-0.3-0.4-0.6
		C61.4,43,57.2,36.3,46.8,36.3z"/>
	<path class="st5" d="M31,57c-0.6,0-1-0.5-1-1c0-9.3,7.4-17,16.4-17c2.2,0,4.4,0.4,6.4,1.3c0.5,0.2,0.8,0.8,0.5,1.4
		c-0.2,0.5-0.8,0.8-1.3,0.6c-1.8-0.8-3.7-1.2-5.6-1.2C38.5,41.1,32,47.8,32,56C32,56.5,31.6,57,31,57z"/>
	<path class="st5" d="M94.9,62.4c-0.1,0-0.3,0-0.4-0.1c-0.4-0.2-0.6-0.8-0.4-1.3c0.8-1.8,1.2-3.8,1.2-5.9c0-0.6,0.4-1,0.9-1
		c0.5,0,0.9,0.4,0.9,1c0,2.4-0.4,4.6-1.3,6.8C95.5,62.2,95.2,62.4,94.9,62.4z"/>
	<path class="st5" d="M95,49c-0.4,0-0.7-0.2-0.9-0.5c-2.3-4.5-7-7.2-12.3-7.2c-1.5,0-2.9,0.2-4.3,0.6c-0.5,0.2-1.1-0.1-1.3-0.6
		c-0.2-0.5,0.1-1,0.6-1.2c1.6-0.5,3.2-0.7,4.9-0.7c6,0,11.4,3.2,14.1,8.3c0.2,0.5,0,1-0.5,1.3C95.3,49,95.1,49,95,49z"/>
	<path class="st1" d="M92.3,40.9c0-0.4-0.4-0.8-1-0.9l-4.8-0.8C86,39,85.5,38.5,85.4,38l-0.8-4.8c-0.1-0.5-0.5-1-0.9-1
		c-0.4,0-0.8,0.4-0.9,1L81.8,38c-0.1,0.5-0.6,1.1-1.2,1.2L75.9,40c-0.5,0.1-1,0.5-1,0.9c0,0.4,0.4,0.8,1,0.9l4.7,0.6
		c0.5,0.1,1.1,0.6,1.2,1.1l0.9,5c0.1,0.5,0.5,1,0.9,1c0.4,0,0.8-0.4,0.9-1l0.9-5.1c0.1-0.5,0.6-1,1.2-1.1l4.7-0.6
		C91.8,41.8,92.3,41.3,92.3,40.9z"/>
	<path class="st1" d="M25.1,75.2c0-0.4-0.4-0.8-1-0.9L22.3,74c-0.5-0.1-1.1-0.6-1.1-1.1L20.9,71c-0.1-0.5-0.5-1-0.9-1
		s-0.8,0.4-0.9,1l-0.3,1.9c-0.1,0.5-0.6,1.1-1.1,1.1l-1.9,0.3c-0.5,0.1-1,0.5-1,0.9c0,0.4,0.4,0.8,1,0.9l1.9,0.3
		c0.5,0.1,1.1,0.6,1.1,1.1l0.3,1.9c0.1,0.5,0.5,1,0.9,1s0.8-0.4,0.8-1l0.3-2.1c0.1-0.5,0.6-1,1.1-1.1l1.8-0.1
		C24.7,75.9,25.1,75.5,25.1,75.2z"/>
</g>
</svg>
