<?xml version="1.0" encoding="utf-8"?>
<!-- Generator: Adobe Illustrator 21.0.2, SVG Export Plug-In . SVG Version: 6.00 Build 0)  -->
<svg version="1.1" id="like" xmlns="http://www.w3.org/2000/svg" xmlns:xlink="http://www.w3.org/1999/xlink" x="0px" y="0px"
	 viewBox="0 0 128 128" style="enable-background:new 0 0 128 128;" xml:space="preserve">
<style type="text/css">
	.st0{fill:#3DB39E;}
	.st1{opacity:0.5;fill:#FFFFFF;}
	.st2{fill:#F9D4CA;}
	.st3{fill:#EFBFB4;}
	.st4{fill:#176859;}
	.st5{fill:#FFFFFF;}
	.st6{fill:#EAEAEA;}
</style>
<g>
	<circle class="st0" cx="64" cy="64" r="64"/>
	<path class="st1" d="M25,39c-2.2,0-4-1.8-4-4c0-2.2,1.8-4,4-4c2.2,0,4,1.8,4,4C29,37.2,27.2,39,25,39z M25,32.9
		c-1.2,0-2.1,1-2.1,2.1c0,1.2,1,2.1,2.1,2.1c1.2,0,2.1-1,2.1-2.1C27.1,33.8,26.2,32.9,25,32.9z"/>
	<path class="st1" d="M52,111c-2.2,0-4-1.8-4-4c0-2.2,1.8-4,4-4c2.2,0,4,1.8,4,4C56,109.2,54.2,111,52,111z M52,104.9
		c-1.2,0-2.1,1-2.1,2.1c0,1.2,1,2.1,2.1,2.1c1.2,0,2.1-1,2.1-2.1C54.1,105.8,53.2,104.9,52,104.9z"/>
	<path class="st1" d="M99.5,29.3c0-0.4-0.4-0.8-1-0.9l-1.9-0.3c-0.5-0.1-1.1-0.6-1.1-1.1l-0.3-1.9c-0.1-0.5-0.5-1-0.9-1
		c-0.4,0-0.8,0.4-0.9,1L93.2,27c-0.1,0.5-0.6,1.1-1.1,1.1l-1.9,0.3c-0.5,0.1-1,0.5-1,0.9s0.4,0.8,1,0.9l1.9,0.3
		c0.5,0.1,1.1,0.6,1.1,1.1l0.3,1.9c0.1,0.5,0.5,1,0.9,1c0.4,0,0.8-0.4,0.9-1l0.3-2.1c0.1-0.5,0.6-1,1.1-1.1l1.8-0.1
		C99.1,30,99.5,29.7,99.5,29.3z"/>
	<path class="st1" d="M56.5,17.3c0-0.4-0.4-0.8-1-0.9l-1.9-0.3c-0.5-0.1-1.1-0.6-1.1-1.1l-0.3-1.9c-0.1-0.5-0.5-1-0.9-1
		c-0.4,0-0.8,0.4-0.9,1l-0.3,1.9c-0.1,0.5-0.6,1.1-1.1,1.1l-1.9,0.3c-0.5,0.1-1,0.5-1,0.9c0,0.4,0.4,0.8,1,0.9l1.9,0.3
		c0.5,0.1,1.1,0.6,1.1,1.1l0.3,1.9c0.1,0.5,0.5,1,0.9,1c0.4,0,0.8-0.4,0.9-1l0.3-2.1c0.1-0.5,0.6-1,1.1-1.1l1.8-0.1
		C56.1,18.1,56.5,17.7,56.5,17.3z"/>
	<path class="st1" d="M86.4,109.2c0-0.4-0.4-0.8-1-0.9l-1.9-0.3c-0.5-0.1-1.1-0.6-1.1-1.1l-0.3-1.9c-0.1-0.5-0.5-1-0.9-1
		c-0.4,0-0.8,0.4-0.9,1l-0.3,1.9c-0.1,0.5-0.6,1.1-1.1,1.1l-1.9,0.3c-0.5,0.1-1,0.5-1,0.9s0.4,0.8,1,0.9l1.9,0.3
		c0.5,0.1,1.1,0.6,1.1,1.1l0.3,1.9c0.1,0.5,0.5,1,0.9,1c0.4,0,0.8-0.4,0.9-1l0.3-2.1c0.1-0.5,0.6-1,1.1-1.1l1.8-0.1
		C86,110,86.4,109.6,86.4,109.2z"/>
	<path class="st2" d="M26.4,53.5v39.2c0,0,16.1,0,23.1,0c8.3,0,11.6,6.5,20.3,6.5h22.9c4.1,0,7.4-2.9,7.4-6.5c0-3.6-3.3-6.5-7.4-6.5
		h2.6c4.1,0,8.5-2.9,8.5-6.5c0-3.6-2.8-6.5-6.8-6.5h2.6c4.1,0,7.4-2.9,7.4-6.5c0-3.6-3.3-6.5-7.4-6.5h2.6c4.1,0,6.8-2.9,6.8-6.5
		c0-3.6-3.3-6.5-7.4-6.5h-24c0,0-1.6,0-2.5,0c0.8-2.3,2.7-7.8,3.4-14.3c0.9-8.3-1.4-15-6-15.7c-6.5-0.9-5.6,8.6-8.8,17.8
		C61,42.8,52,50.8,48.8,53.5H26.4z"/>
	<path class="st3" d="M101.1,79.4c0,3.6-4.5,6.5-8.5,6.5H69.8c-5.3,0-13.2-5.8-15.3-14.8c-2.9-12.8,3.7-22.9,6.5-30.5
		c-3.8,5.7-9.7,10.9-12.2,13H32.7l5.1,21.3l3.3,4.6c-7,0-14.7,0-14.7,0v13.3c0,0,16.1,0,23.1,0c8.3,0,11.6,6.5,20.3,6.5h22.9
		c4.1,0,7.4-2.9,7.4-6.5c0-3.6-3.3-6.5-7.4-6.5h2.6c4.1,0,8.5-2.9,8.5-6.5c0-3.4-2.4-6.1-6.2-6.4C98.9,74.3,101.1,76.6,101.1,79.4z"
		/>
	<path class="st3" d="M97.6,73.4C97.5,73.3,97.5,73.3,97.6,73.4l-0.6,0C97.1,73.3,97.4,73.3,97.6,73.4z"/>
	<path class="st3" d="M109,53.9c0-3.6-3.3-6.5-7.4-6.5h-0.1c2.8,0.9,4.9,3.3,4.9,6.1c0,3.6-2.8,6.5-6.8,6.5c0,0,0.2,0.1,0.6,0.4h2
		C106.2,60.4,109,57.5,109,53.9z"/>
	<path class="st3" d="M99.5,60.4c0.2,0,0.4,0,0.6,0c0,0,0,0,0,0H99.5z"/>
	<path class="st3" d="M104.3,66.5c0,3.6-3.3,6.5-7.4,6.5c0,0,0.2,0.1,0.6,0.4h2c4.1,0,7.4-2.9,7.4-6.5c0-3.4-3-6.1-6.8-6.4
		C101.5,61.4,104.3,63.7,104.3,66.5z"/>
	<path class="st4" d="M92.6,100H69.8c-4.6,0-7.8-1.7-10.9-3.3C56,95.1,52.9,94,49,94H26c-0.6,0-0.6-0.7-0.6-1.3V54c0-0.6,0.4-1,1-1
		h22c4.1-3.4,12-11.3,14.3-18c1-2.7,1.6-5.5,2.1-8C66,21.3,67.4,16,72,16c0.3,0,0.7,0,1,0c5.1,0.7,8,7.8,7,17
		c-0.6,5.7-2.6,10.9-3.5,13.7c0.5,0.1,1,0.3,1.3,0.3h23.8c4.8,0,8.4,3,8.4,6.9c0,3.4-2.1,6.1-5.2,7.1c1.9,1.4,3.2,3.6,3.2,6
		c0,3.4-2.6,6.1-6,7c1.7,1.3,3,3.6,3,6c0,3.4-3.5,6-7.1,6.9c1.9,1.4,3.1,3.5,3.1,5.8C101,96.8,97.3,100,92.6,100z M27,92h22
		c4.4,0,7.9,1.3,10.8,2.9c3,1.6,5.8,3.1,9.9,3.1h22.9c3.6,0,6.4-2.3,6.4-5.3c0-3-2.9-5.5-6.4-5.5c-0.6,0-1-0.4-1-1c0-0.6,0.4-1,1-1
		h2.6c3.4,0,7.8-2.2,7.8-5.2c0-3.2-2.7-5.7-6.1-5.7c-0.6,0-1-0.4-1-1c0-0.6,0.4-1,1-1h2.6c3.5,0,6.5-2.3,6.5-5.3
		c0-3-2.9-5.6-6.5-5.6c-0.6,0-1-0.4-1-1c0-0.6,0.4-1,1-1h2.6c3.4,0,5.8-2.3,5.8-5.5c0-2.9-2.7-4.9-6.4-4.9h-24c-0.1,0-0.2,0-0.3,0
		c-0.6-0.2-1.6-0.5-2.2-0.5c-0.3,0-0.6-0.2-0.8-0.4c-0.2-0.3-0.2-0.6-0.1-0.9C75,44.8,77.3,39.3,78,33c0.9-7.9-2-15-6-15
		c-3.5,0-3.9,3.2-5.2,9.4c-0.5,2.5-1.2,5.4-2.2,8.3c-2.6,7.3-11.1,15.7-15.2,19.2C49.2,54.9,49,55,48.8,55H27V92z"/>
	<path class="st5" d="M25,90c0,3.3,2.7,6,6,6h5.8c3.3,0,6-2.7,6-6V55.2c0-3.3-2.7-6-6-6H31c-3.3,0-6,2.7-6,6V90z"/>
	<path class="st6" d="M36.9,86.5H31c-3.3,0-6-2.7-6-6V90c0,3.3,2.7,6,6,6h5.8c3.3,0,6-2.7,6-6v-9.5C42.9,83.8,40.2,86.5,36.9,86.5z"
		/>
	<path class="st4" d="M37,97h-6c-3.9,0-7-3.1-7-7V55c0-3.9,3.1-7,7-7h6c3.9,0,7,3.1,7,7v35C44,93.9,40.9,97,37,97z M31,50
		c-2.8,0-5,2.2-5,5v35c0,2.8,2.2,5,5,5h6c2.8,0,5-2.2,5-5V55c0-2.8-2.2-5-5-5H31z"/>
	<path class="st5" d="M74,39c-0.1,0-0.2,0-0.2,0c-0.5-0.1-0.9-0.7-0.8-1.2c2.1-8.9,0.1-14.5,0-14.5c-0.2-0.5,0.1-1.1,0.6-1.3
		c0.5-0.2,1.1,0.1,1.3,0.6c0.1,0.2,2.3,6.2,0,15.7C74.9,38.7,74.5,39,74,39z"/>
	<circle class="st4" cx="34" cy="60" r="3"/>
</g>
</svg>
