<?xml version="1.0" encoding="utf-8"?>
<!-- Generator: Adobe Illustrator 21.0.2, SVG Export Plug-In . SVG Version: 6.00 Build 0)  -->
<svg version="1.1" id="adress" xmlns="http://www.w3.org/2000/svg" xmlns:xlink="http://www.w3.org/1999/xlink" x="0px" y="0px"
	 viewBox="0 0 128 128" style="enable-background:new 0 0 128 128;" xml:space="preserve">
<style type="text/css">
	.st0{fill:#EAEAEA;}
	.st1{fill:#FBD000;}
	.st2{fill:#3AD0F9;}
	.st3{fill:#0C508E;}
	.st4{fill:#FFFFFF;}
	.st5{fill:#D4D6D6;}
	.st6{fill:#00B3F9;}
	.st7{opacity:0.5;fill:#FFFFFF;}
</style>
<g>
	<path class="st0" d="M43.3,90.5c0,0,36.7,0,47.4,0.1c0.5-1.9,1.5-3.6,2.9-5c-0.4-0.1-50.2-0.1-50.2-0.1c-4.4,0-8,3.6-8,8
		c0,0.9,0.1,1.7,0.4,2.5C36.7,92.8,39.8,90.5,43.3,90.5z"/>
	<path class="st0" d="M90.2,99.7c0,0.5-0.1,1.1-0.2,1.6c0.8,0,1.2,0,1.2,0C90.7,100.8,90.4,100.3,90.2,99.7z"/>
	<circle class="st1" cx="64.5" cy="63.5" r="64"/>
	<path class="st2" d="M93.3,104.5h-51c-4.4,0-8-3.6-8-8v-61c0-4.4,3.6-8,8-8l51,0.1V104.5z"/>
	<path class="st3" d="M94,106H42c-5,0-9-4-9-9V36c0-4.8,4.1-9.5,9.3-9.5L94,27c0.6,0,1,0.4,1,1v77C95,105.6,94.6,106,94,106z
		 M42.3,28.5c-4.1,0-7.3,3.8-7.3,7.5v61c0,3.9,3.1,7,7,7h51l-0.5-75.4L42.3,28.5z"/>
	<path class="st4" d="M90.3,93.3c0-3,1.2-5.7,3.2-7.7c-0.4-0.1-50.2-0.1-50.2-0.1c-4.4,0-8,3.6-8,8s3.6,8,8,8c0,0,47.5-0.1,48-0.2
		C89,99.3,90.3,96.5,90.3,93.3z"/>
	<path class="st0" d="M42.3,31.5c0-4.4,3.6-8,8-8h35c4.4,0,8,3.6,8,8v54h-43c-4.4,0-8-3.6-8-8V31.5z"/>
	<path class="st5" d="M90.3,73V27.2c0-0.9-0.1-1.7-0.4-2.4c-0.7-0.2-1.5-0.3-2.3-0.3H60.4l-13.5,2.4c-1.4,1.4-2.3,3.4-2.3,5.6v46
		c0,4.4,4,7.5,8.4,7.5h8c10.6-2.1,21.4-3.6,21.4-3.6C86.7,81.7,90.3,77.4,90.3,73z"/>
	<path class="st3" d="M94,86H50c-5,0-8.7-3.5-8.7-8.5v-46c0-5,4-9,9-9h35c5,0,9.2,4.1,9.2,9v54C94.5,86.1,94.6,86,94,86z M50.3,24.5
		c-3.9,0-7,3.1-7,7v46c0,3.9,3.1,7,7,7L93,84V32c0-3.8-3.8-7.5-7.7-7.5H50.3z"/>
	<path class="st3" d="M92,103H43c-5,0-8.7-4.5-8.7-9.5s4-9,9-9c33.1,0,50.1,0.1,50.4,0.1c0.4,0.1,0.7,0.3,0.8,0.7
		c0.1,0.4,0,0.8-0.2,1C92.3,88.2,91,91.4,91,94c0,4.8,2.1,6.9,2.1,6.9c0.2,0.3,0.1,0.7-0.1,1.1C92.8,102.3,92.4,103,92,103z M43,86
		c-3.9,0-6.7,3.6-6.7,7.5s2.9,7.5,6.7,7.5h48c-0.6-1.5-2-3.7-2-7c0-2.4,1.6-6,3-8C84.6,86,44.2,86,43,86z"/>
	<path class="st2" d="M89.5,69.1c0,4.4-2.4,8.6-6.8,9.4c0,0-40.7,7.8-42.6,8.4c-1.9,0.6-6.2,2.2-6.2,6.7c0,5.5,0-60.3,0-60.3
		c0-4.4,3.5-8.6,7.9-9.4l40.9-7.2c4.3-0.8,7.8,2.2,7.8,6.6L89.5,69.1z"/>
	<path class="st6" d="M38.5,32.4c0-3.6,2.6-7.1,5.8-8.9l-2.5,0.4c-4.3,0.8-7.9,5-7.9,9.4c0,0,0,55.5,0,60.3c0-3.7,2.5-5.4,4.6-6.2
		C38.5,69.2,38.5,32.4,38.5,32.4z"/>
	<path class="st3" d="M35,95c-0.6,0-1,0.6-1,0l-1-62c0-4.7,3.7-9.2,8.7-10l40.9-7.2c0.5-0.1,1-0.1,1.5-0.1c3.9,0,7,2.7,7,7.4v46
		c0,5.3-3.6,9.7-8.1,10.5c-16.3,3.1-41.1,7.9-42.4,8.4c-3,1-6,2.4-6,5.7v0.3C34.5,94.5,35.6,95,35,95z M84,17.6
		c-0.4,0-0.7,0-1.1,0.1L42,24.9c-4,0.7-7,4.3-7,8.1l-0.5,55.9c1.7-1.7,4.1-2.5,5.3-2.9c2-0.7,38.6-7.6,42.8-8.4
		c4.1-0.7,6.5-5,6.5-8.5V23C89,19.4,86.8,17.6,84,17.6z"/>
	<path class="st4" d="M64.3,43.6c-1,0-1.8-0.4-2.5-1.1c-0.8-0.9-1.1-2.1-0.9-3.5c0.3-2.8,2.5-5.4,4.9-5.9c1.3-0.3,2.6,0.1,3.4,1
		c0.8,0.9,1.1,2.1,0.9,3.5c-0.3,2.8-2.5,5.4-4.9,5.9C64.9,43.6,64.6,43.6,64.3,43.6z M66.7,35c-0.1,0-0.3,0-0.5,0.1
		c-1.6,0.4-3.1,2.3-3.3,4.2c-0.1,0.8,0.1,1.5,0.4,1.9c0.3,0.4,0.8,0.5,1.4,0.4c1.6-0.4,3.1-2.3,3.3-4.2c0.1-0.8-0.1-1.5-0.4-1.9
		C67.4,35.1,67.1,35,66.7,35z"/>
	<path class="st4" d="M61,55.7L61,55.7c-1.4,0-2.8-0.3-4-0.8c-0.4-0.2-0.7-0.7-0.6-1.1c0.9-4.2,4.2-7.9,7.7-8.7c2-0.5,3.8,0,5,1.3
		c1.1,1.1,1.7,2.8,1.7,4.7c0,0.3-0.1,0.6-0.4,0.8c-2.2,1.8-4.5,3-6.9,3.6C62.7,55.6,61.8,55.7,61,55.7z M58.6,53.4
		c0.7,0.2,1.5,0.4,2.4,0.4h0c0.7,0,1.5-0.1,2.2-0.3c1.9-0.4,3.8-1.4,5.7-2.9c-0.1-1.2-0.4-2.2-1.1-2.8c-0.8-0.8-1.9-1-3.1-0.7
		C62.1,47.6,59.6,50.3,58.6,53.4z"/>
	<path class="st4" d="M56,44.9c-0.8,0-1.5-0.3-2-0.9c-0.6-0.7-0.9-1.7-0.7-2.8c0.2-2.1,1.9-4.2,3.8-4.6c1.1-0.3,2.1,0.1,2.8,0.8
		c0.6,0.7,0.9,1.7,0.7,2.8c-0.2,2.1-1.9,4.2-3.8,4.6C56.5,44.9,56.2,44.9,56,44.9z M57.7,38.5c-0.1,0-0.2,0-0.3,0
		c-1,0.2-2.1,1.6-2.2,2.9c-0.1,0.5,0,1,0.3,1.2c0.2,0.2,0.5,0.3,0.8,0.2c1-0.2,2.1-1.6,2.2-2.9c0.1-0.5,0-1-0.3-1.2
		C58.1,38.6,57.9,38.5,57.7,38.5z"/>
	<path class="st4" d="M53.5,53.8c-1.1,0-2.1-0.2-3-0.6c-0.4-0.2-0.7-0.7-0.6-1.1c0.7-3.2,3.2-6,5.9-6.6c1.3-0.3,2.6-0.1,3.5,0.6
		c0.4,0.3,0.5,1,0.2,1.4c-0.3,0.4-1,0.5-1.4,0.2c-0.5-0.4-1.1-0.5-1.9-0.3c-1.7,0.4-3.4,2.2-4.2,4.3c0.9,0.2,1.9,0.2,3,0
		c0.5-0.1,1.1,0.2,1.2,0.7c0.1,0.5-0.2,1.1-0.7,1.2C54.8,53.7,54.2,53.8,53.5,53.8z"/>
	<path class="st4" d="M52.6,63.8c-0.5,0-0.9-0.3-1-0.8c-0.1-0.5,0.3-1.1,0.8-1.2l18.7-3.5c0.5-0.1,1.1,0.3,1.2,0.8
		c0.1,0.5-0.3,1.1-0.8,1.2l-18.7,3.5C52.7,63.8,52.6,63.8,52.6,63.8z"/>
	<path class="st4" d="M65.3,67c-0.5,0-0.9-0.3-1-0.8c-0.1-0.5,0.3-1.1,0.8-1.2l6-1.1c0.5-0.1,1.1,0.3,1.2,0.8
		c0.1,0.5-0.3,1.1-0.8,1.2l-6,1.1C65.4,67,65.3,67,65.3,67z"/>
	<path class="st4" d="M52.6,69.3c-0.5,0-0.9-0.3-1-0.8c-0.1-0.5,0.3-1.1,0.8-1.2l7.7-1.4c0.5-0.1,1.1,0.3,1.2,0.8s-0.3,1.1-0.8,1.2
		l-7.7,1.4C52.7,69.3,52.6,69.3,52.6,69.3z"/>
	<path class="st7" d="M85.5,69.1c-0.6,0-1-0.4-1-1V27.6c0-1.9,0-5.1-0.6-5.6c-0.3-0.3-1.4-0.1-2.4,0.1c-1.5,0.3-7.6,1.5-18.3,3.5
		c-0.5,0.1-1.1-0.3-1.2-0.8c-0.1-0.5,0.3-1.1,0.8-1.2c10.6-2,16.8-3.2,18.2-3.5c1.6-0.3,3-0.5,4,0.3c1.2,1,1.4,2.9,1.4,7.2v40.5
		C86.5,68.7,86.1,69.1,85.5,69.1z"/>
	<path class="st7" d="M45.8,28.8c-0.5,0-0.9-0.3-1-0.8c-0.1-0.5,0.3-1.1,0.8-1.2l10.7-2c0.5-0.1,1.1,0.3,1.2,0.8
		c0.1,0.5-0.3,1.1-0.8,1.2l-10.7,2C45.9,28.8,45.8,28.8,45.8,28.8z"/>
	<path class="st4" d="M116,47.5c0-0.4-0.4-0.8-1-0.9l-1.9-0.3c-0.5-0.1-1.1-0.6-1.1-1.1l-0.3-1.9c-0.1-0.5-0.5-1-0.9-1
		s-0.8,0.4-0.9,1l-0.3,1.9c-0.1,0.5-0.6,1.1-1.1,1.1l-1.9,0.3c-0.5,0.1-1,0.5-1,0.9c0,0.4,0.4,0.8,1,0.9l1.9,0.3
		c0.5,0.1,1.1,0.6,1.1,1.1l0.3,1.9c0.1,0.5,0.5,1,0.9,1s0.8-0.4,0.9-1l0.3-2.1c0.1-0.5,0.6-1,1.1-1.1l1.8-0.1
		C115.5,48.3,116,47.9,116,47.5z"/>
	<path class="st4" d="M59.7,9.9c0-0.4-0.4-0.8-1-0.9l-1.9-0.3c-0.5-0.1-1.1-0.6-1.1-1.1l-0.3-1.9c-0.1-0.5-0.5-1-0.9-1
		c-0.4,0-0.8,0.4-0.9,1l-0.3,1.9c-0.1,0.5-0.6,1.1-1.1,1.1l-1.9,0.3c-0.5,0.1-1,0.5-1,0.9c0,0.4,0.4,0.8,1,0.9l1.9,0.3
		c0.5,0.1,1.1,0.6,1.1,1.1l0.3,1.9c0.1,0.5,0.5,1,0.9,1c0.4,0,0.8-0.4,0.9-1l0.3-2.1c0.1-0.5,0.6-1,1.1-1.1l1.8-0.1
		C59.3,10.7,59.7,10.3,59.7,9.9z"/>
	<path class="st4" d="M26.5,77.4c0-0.4-0.4-0.8-1-0.9l-1.9-0.3c-0.5-0.1-1.1-0.6-1.1-1.1l-0.3-1.9c-0.1-0.5-0.5-1-0.9-1
		s-0.8,0.4-0.9,1l-0.3,1.9c-0.1,0.5-0.6,1.1-1.1,1.1l-1.9,0.3c-0.5,0.1-1,0.5-1,0.9c0,0.4,0.4,0.8,1,0.9l1.9,0.3
		c0.5,0.1,1.1,0.6,1.1,1.1l0.3,1.9c0.1,0.5,0.5,1,0.9,1s0.8-0.4,0.9-1l0.3-2.1c0.1-0.5,0.6-1,1.1-1.1l1.8-0.1
		C26.1,78.1,26.5,77.8,26.5,77.4z"/>
	<path class="st4" d="M18,53c-2.2,0-4-1.8-4-4c0-2.2,1.8-4,4-4c2.2,0,4,1.8,4,4C22,51.2,20.2,53,18,53z M18,46.9
		c-1.2,0-2.1,1-2.1,2.1c0,1.2,1,2.1,2.1,2.1c1.2,0,2.1-1,2.1-2.1C20.1,47.8,19.2,46.9,18,46.9z"/>
	<path class="st4" d="M109,85c-2.2,0-4-1.8-4-4c0-2.2,1.8-4,4-4c2.2,0,4,1.8,4,4C113,83.2,111.2,85,109,85z M109,78.9
		c-1.2,0-2.1,1-2.1,2.1c0,1.2,1,2.1,2.1,2.1c1.2,0,2.1-1,2.1-2.1C111.1,79.8,110.2,78.9,109,78.9z"/>
	<path class="st3" d="M80,91H49c-0.6,0-1-0.4-1-1s0.4-1,1-1h31c0.6,0,1,0.4,1,1S80.6,91,80,91z"/>
	<path class="st3" d="M85,95H60c-0.6,0-1-0.4-1-1s0.4-1,1-1h25c0.6,0,1,0.4,1,1S85.6,95,85,95z"/>
	<path class="st3" d="M53.3,95h-12c-0.6,0-1-0.4-1-1s0.4-1,1-1h12c0.6,0,1,0.4,1,1S53.8,95,53.3,95z"/>
</g>
</svg>
