<?xml version="1.0" encoding="utf-8"?>
<!-- Generator: Adobe Illustrator 21.0.2, SVG Export Plug-In . SVG Version: 6.00 Build 0)  -->
<svg version="1.1" id="tweet" xmlns="http://www.w3.org/2000/svg" xmlns:xlink="http://www.w3.org/1999/xlink" x="0px" y="0px"
	 viewBox="0 0 128 128" style="enable-background:new 0 0 128 128;" xml:space="preserve">
<style type="text/css">
	.st0{fill:#3AD0F9;}
	.st1{fill:#EAEAEA;}
	.st2{fill:#D4D6D6;}
	.st3{fill:#0C508E;}
	.st4{fill:#FFFFFF;}
	.st5{fill:#ADADAD;}
</style>
<g>
	<circle class="st0" cx="64" cy="64" r="64"/>
	<path class="st1" d="M97.8,23H31.3c-4.4,0-8,3.6-8,8v56.8c0,4.4,3.6,8,8,8h12v14.5l14.5-14.5h40c4.4,0,8-3.6,8-8V31
		C105.8,26.6,102.2,23,97.8,23z"/>
	<path class="st2" d="M44,91.1H31.3c-4.4,0-8-3.6-8-8v4.7c0,4.4,3.6,8,8,8H44V91.1z"/>
	<path class="st2" d="M97.8,91.1h-40l-14.5,14.5v4.7l14.5-14.5h40c4.4,0,8-3.6,8-8v-4.7C105.8,87.5,102.2,91.1,97.8,91.1z"/>
	<path class="st3" d="M43,111.3c-0.1,0-0.3,0-0.4-0.1c-0.4-0.2-0.6-0.5-0.6-0.9V97H31.3c-4.9,0-9.3-4.3-9.3-9.2V31
		c0-4.9,4.2-9,9.3-9h66.5c5,0,9.2,4.1,9.2,9v56.8c0,4.9-4.3,9.2-9.2,9.2H58.2l-14.5,14C43.5,111.2,43.3,111.3,43,111.3z M31.3,24
		c-3.9,0-7.3,3.2-7.3,7v56.8c0,3.8,3.4,7.2,7.3,7.2H43c0.6,0,1,0.4,1,1v11.9l13.1-12.6c0.2-0.2,0.4-0.3,0.7-0.3h40
		c3.9,0,7.2-3.4,7.2-7.2V31c0-3.8-3.3-7-7.2-7H31.3z"/>
	<path class="st0" d="M80.8,39.9c0,0-2.1-0.3-3.6-0.4c-0.8-1.5-2.3-2.7-4.1-3.2c-3.5-0.9-7.1,1.2-8,4.7c-0.1,0.5-0.2,1-0.2,1.5
		c-5.2-1.7-9.2-5.4-11.3-10.1c-0.8,0.8-2.8,6.1-2.9,9.9c0,3.2,2.4,9.7,5.2,10.5c-2.6,1.1-5.6,1.4-8.6,0.6c-0.5-0.1-1-0.3-1.5-0.5
		c2.3,2.5,5.4,4.5,9,5.4c11.7,3.1,20.6-4.9,22.8-13.3c0.1-0.3,0.3-1.2,0.3-1.5C80.5,42.6,80.8,39.9,80.8,39.9z"/>
	<circle class="st4" cx="72" cy="42" r="2"/>
	<path class="st5" d="M96,69H87c-0.6,0-1-0.4-1-1s0.5-1,1-1H96c0.6,0,1,0.4,1,1S96.5,69,96,69z"/>
	<path class="st5" d="M82,69H60c-0.6,0-1-0.4-1-1s0.5-1,1-1h22c0.6,0,1,0.4,1,1S82.5,69,82,69z"/>
	<path class="st5" d="M54,69H32c-0.6,0-1-0.4-1-1s0.4-1,1-1h22c0.6,0,1,0.4,1,1S54.6,69,54,69z"/>
	<path class="st5" d="M96,76H76c-0.6,0-1-0.4-1-1s0.5-1,1-1h20c0.6,0,1,0.4,1,1S96.5,76,96,76z"/>
	<path class="st5" d="M69,76H49c-0.6,0-1-0.4-1-1s0.5-1,1-1H69c0.6,0,1,0.4,1,1S69.5,76,69,76z"/>
	<path class="st5" d="M43,76H31.9c-0.6,0-1-0.4-1-1s0.5-1,1-1H43c0.6,0,1,0.4,1,1S43.5,76,43,76z"/>
	<path class="st5" d="M96,83H61c-0.6,0-1-0.4-1-1s0.5-1,1-1h35c0.6,0,1,0.4,1,1S96.5,83,96,83z"/>
	<path class="st5" d="M55,83H31.9c-0.6,0-1-0.4-1-1s0.5-1,1-1H55c0.6,0,1,0.4,1,1S55.5,83,55,83z"/>
	<path class="st5" d="M96,89H82c-0.6,0-1-0.4-1-1s0.4-1,1-1h14c0.6,0,1,0.4,1,1S96.6,89,96,89z"/>
	<path class="st3" d="M60,60C60,60,60,60,60,60c-1.7,0-3.5-0.2-5.3-0.7c-3.6-1-6.9-3-9.4-5.8c-0.3-0.3-0.3-0.9-0.1-1.3
		c0.3-0.4,0.8-0.5,1.2-0.4c0.4,0.2,0.9,0.3,1.4,0.5c2,0.5,4.1,0.6,6.1,0c-2.4-2.5-4-7.7-4-10.3c0-3.8,2-9.6,3.1-10.7
		c0.2-0.2,0.6-0.3,0.9-0.3c0.3,0.1,0.6,0.3,0.7,0.6c1.9,4.2,5.3,7.6,9.6,9.3c0-0.1,0.1-0.3,0.1-0.4c0.9-3.4,3.9-5.7,7.3-5.7
		c0.7,0,1.3,0.1,1.9,0.3c1.8,0.5,3.4,1.7,4.4,3.3c1.4,0.1,3.1,0.3,3.2,0.3c0.3,0,0.5,0.2,0.7,0.4c0.2,0.2,0.2,0.5,0.2,0.8
		c0,0.1-0.4,3-3,4.3c-0.1,0.4-0.2,0.8-0.2,1C76.8,52.5,69.7,60,60,60z M49.6,54.7c1.7,1.2,3.6,2.1,5.6,2.6c1.6,0.4,3.2,0.7,4.8,0.7
		c8.7,0,15-6.7,16.8-13.4c0.1-0.3,0.3-1.2,0.3-1.5c0.1-0.3,0.3-0.6,0.6-0.7c1.1-0.4,1.7-1.3,2-1.9c-0.7-0.1-1.6-0.2-2.4-0.2
		c-0.3,0-0.6-0.2-0.8-0.5c-0.7-1.4-2-2.4-3.5-2.8c-0.5-0.1-0.9-0.2-1.4-0.2c-2.5,0-4.7,1.7-5.4,4.2c-0.1,0.4-0.2,0.9-0.2,1.3
		c0,0.3-0.2,0.6-0.4,0.8c-0.3,0.2-0.6,0.2-0.9,0.1c-4.7-1.5-8.6-4.8-11-9c-0.8,1.9-1.8,5.3-1.8,7.9c0,3.2,2.5,9.1,4.5,9.7
		c0.4,0.1,0.7,0.5,0.7,0.9c0,0.4-0.2,0.8-0.6,1C54.3,54.5,52,54.9,49.6,54.7z"/>
	<path class="st4" d="M101,75.2c-0.6,0-1-0.4-1-1V59.8c0-0.6,0.4-1,1-1c0.6,0,1,0.4,1,1v14.5C102,74.8,101.6,75.2,101,75.2z"/>
	<path class="st4" d="M101,53c-0.6,0-1-0.4-1-1V36c0-5.8-2.6-7-6.5-7H56.2c-0.6,0-1-0.4-1-1s0.4-1,1-1h37.3c3.6,0,8.5,0.9,8.5,9v16
		C102,52.6,101.6,53,101,53z"/>
	<path class="st4" d="M47.2,29h-12c-0.6,0-1-0.4-1-1s0.4-1,1-1h12c0.6,0,1,0.4,1,1S47.8,29,47.2,29z"/>
	<path class="st4" d="M59.6,56c-0.1,0-0.2,0-0.3,0c-0.6,0-1-0.5-0.9-1c0-0.5,0.5-0.9,1.1-0.9c2,0.1,8.2-1.6,10.7-6.2
		c0.3-0.5,0.9-0.6,1.4-0.4c0.5,0.2,0.7,0.8,0.4,1.3C69.2,53.7,62.7,56,59.6,56z"/>
	<path class="st4" d="M68,16c-2.2,0-4-1.8-4-4c0-2.2,1.8-4,4-4c2.2,0,4,1.8,4,4C72,14.2,70.2,16,68,16z M68,9.9
		c-1.2,0-2.1,1-2.1,2.1c0,1.2,1,2.1,2.1,2.1c1.2,0,2.1-1,2.1-2.1C70.1,10.8,69.2,9.9,68,9.9z"/>
	<path class="st4" d="M66,116c-2.2,0-4-1.8-4-4c0-2.2,1.8-4,4-4c2.2,0,4,1.8,4,4C70,114.2,68.2,116,66,116z M66,109.9
		c-1.2,0-2.1,1-2.1,2.1c0,1.2,1,2.1,2.1,2.1c1.2,0,2.1-1,2.1-2.1C68.1,110.8,67.2,109.9,66,109.9z"/>
	<path class="st4" d="M94.4,106.7c0-0.4-0.4-0.8-1-0.9l-1.9-0.3c-0.5-0.1-1.1-0.6-1.1-1.1l-0.3-1.9c-0.1-0.5-0.5-1-0.9-1
		s-0.8,0.4-0.9,1l-0.3,1.9c-0.1,0.5-0.6,1.1-1.1,1.1l-1.9,0.3c-0.5,0.1-1,0.5-1,0.9c0,0.4,0.4,0.8,1,0.9l1.9,0.3
		c0.5,0.1,1.1,0.6,1.1,1.1l0.3,1.9c0.1,0.5,0.5,1,0.9,1s0.8-0.4,0.8-1l0.3-2.1c0.1-0.5,0.6-1,1.1-1.1l1.8-0.1
		C94,107.5,94.4,107.1,94.4,106.7z"/>
	<path class="st4" d="M18.4,65.7c0-0.4-0.4-0.8-1-0.9l-1.9-0.3c-0.5-0.1-1.1-0.6-1.1-1.1l-0.3-1.9c-0.1-0.5-0.5-1-0.9-1
		c-0.4,0-0.8,0.4-0.9,1l-0.3,1.9c-0.1,0.5-0.6,1.1-1.1,1.1l-1.9,0.3c-0.5,0.1-1,0.5-1,0.9c0,0.4,0.4,0.8,1,0.9l1.9,0.3
		c0.5,0.1,1.1,0.6,1.1,1.1l0.3,1.9c0.1,0.5,0.5,1,0.9,1c0.4,0,0.8-0.4,0.8-1l0.3-2.1c0.1-0.5,0.6-1,1.1-1.1l1.8-0.1
		C18,66.5,18.4,66.1,18.4,65.7z"/>
</g>
</svg>
