<?xml version="1.0" encoding="utf-8"?>
<!-- Generator: Adobe Illustrator 21.0.2, SVG Export Plug-In . SVG Version: 6.00 Build 0)  -->
<svg version="1.1" id="megaphone" xmlns="http://www.w3.org/2000/svg" xmlns:xlink="http://www.w3.org/1999/xlink" x="0px" y="0px"
	 viewBox="0 0 128 128" style="enable-background:new 0 0 128 128;" xml:space="preserve">
<style type="text/css">
	.st0{fill:#FF4848;}
	.st1{fill:#FBD000;}
	.st2{fill:#663210;}
	.st3{fill:#FFFFFF;}
	.st4{fill:#EAEAEA;}
	.st5{fill:#F4B10B;}
	.st6{fill:#233E49;}
	.st7{opacity:0.5;fill:#0C508E;}
	.st8{opacity:0.5;fill:#FFFFFF;}
</style>
<g>
	<circle class="st0" cx="64" cy="64" r="64"/>
	<ellipse transform="matrix(0.9449 -0.3272 0.3272 0.9449 -11.8042 32.051)" class="st1" cx="89.3" cy="51.1" rx="10.4" ry="10.4"/>
	<path class="st2" d="M89.5,63c-4.9,0-9.3-3.1-10.9-7.7c-1-2.9-0.8-6,0.5-8.8c1.3-2.8,3.7-4.8,6.6-5.8c1.2-0.4,2.5-0.6,3.8-0.6
		c4.9,0,9.3,3.1,10.9,7.7c1,2.9,0.8,6-0.5,8.8c-1.3,2.8-3.7,4.8-6.6,5.8C92,62.8,90.8,63,89.5,63z M89.5,42c-1.1,0-2.1,0.2-3.1,0.5
		c-2.4,0.8-4.3,2.5-5.4,4.8c-1.1,2.3-1.3,4.9-0.4,7.2c1.3,3.8,4.9,6.4,9,6.4c1.1,0,2.1-0.2,3.1-0.5c2.4-0.8,4.3-2.5,5.4-4.8
		c1.1-2.3,1.3-4.9,0.4-7.2C97.1,44.6,93.5,42,89.5,42z"/>
	<path class="st3" d="M59,98.3c2.4,3.7,1.6,8.5-1.8,10.6c-3.3,2.1-8,0.8-10.4-2.9L33.5,85.1c-2.4-3.7-1.6-8.5,1.8-10.6
		c3.3-2.1,8-0.8,10.4,2.9L59,98.3z"/>
	<path class="st3" d="M16.2,77.5c1.9,5.5,9.5,10,19.9,6.4c8.7-3,26-7.2,36.7-4.8c10.7,2.4,17.7,7.4,21.8,8.2
		c3.1,0.6,5.9-0.5,5.9-0.5L76.7,17.9c0,0-2.8,0.9-4.9,3.3c-2.8,3.2-5.2,11.4-12.1,19.9C52.6,49.6,36.5,57,27.8,60
		C17.4,63.6,14.3,72,16.2,77.5z"/>
	<path class="st4" d="M94.9,79.2c-4.1-0.8-11.1-5.8-21.8-8.2c-10.7-2.4-28,1.8-36.7,4.8c-10.2,3.5-17.8-0.8-19.8-6.2
		c-1.1,2.7-1.2,5.5-0.4,7.8c1.9,5.5,9.5,10,19.9,6.4c8.7-3,26-7.2,36.7-4.8c10.7,2.4,17.7,7.4,21.8,8.2c3.1,0.6,5.9-0.5,5.9-0.5
		L98,79.4C97.1,79.5,96,79.5,94.9,79.2z"/>
	<path class="st1" d="M46.6,51.3c0.7,10.3,4.3,19.8,9.9,27.8c5.7-0.8,11.4-1,16,0c-8.6-7.8-14-19-14-31.5c0-1.9,0.1-3.8,0.4-5.6
		C55.8,45.3,51.4,48.5,46.6,51.3z"/>
	<path class="st5" d="M65.2,70.4c0,0-8.7,0.6-13,1.4c1,1.9,2,3.8,3.2,5.6c0.3,0.4,0.6,0.8,0.8,1.2c0.4,0.6,0.6,0.4,1.3,0.3
		c1.1-0.1,2.2-0.2,3.3-0.3c3.8-0.3,7.9-0.4,11.7,0.5C69.7,76.5,67.3,73.6,65.2,70.4C61,70.5,65.2,70.4,65.2,70.4z"/>
	<path class="st2" d="M96.6,89c-0.7,0-1.5-0.1-2.2-0.2c-1.8-0.3-3.9-1.3-6.5-2.6c-4-1.9-8.9-4.2-15.3-5.6c-2-0.5-4.4-0.7-7.1-0.7
		c-9.8,0-21.7,3-28.9,5.5c-2.6,0.9-5.1,1.3-7.5,1.3c0,0,0,0,0,0c-7.4,0-12.1-4.2-13.6-8.4c-2.2-6.4,1.8-15.2,12.2-18.9
		C35.5,56.7,52,49.3,59,40.7c4.1-5.1,6.6-10,8.5-14c1.3-2.6,2.4-4.7,3.5-6.1c2.3-2.6,5.3-3.6,5.4-3.6c0.5-0.2,1.1,0.1,1.2,0.6
		L101.5,87c0.2,0.5-0.1,1.1-0.6,1.3C100.8,88.3,99,89,96.6,89z M65.6,77.9c2.8,0,5.4,0.2,7.5,0.7c6.6,1.5,11.8,4,15.7,5.8
		c2.5,1.2,4.5,2.1,6,2.4c0.6,0.1,1.2,0.2,1.8,0.2c1.1,0,2-0.2,2.6-0.3L76.2,19.3c-0.9,0.4-2.4,1.3-3.6,2.6c-1,1.2-2,3.2-3.3,5.7
		c-1.9,3.8-4.5,9.1-8.8,14.3c-7.3,9-24.2,16.6-32.1,19.4C18.2,64.9,15.9,73,17.5,77.7c1.2,3.5,5.3,7.1,11.7,7.1h0
		c2.2,0,4.5-0.4,6.8-1.2C43.4,80.9,55.5,77.9,65.6,77.9z"/>
	<path class="st4" d="M49.2,82.9l-3.6-5.6c-2.4-3.7-7-5-10.4-2.9c-3.3,2.1-4.1,6.9-1.8,10.6l3.4,5.4c1.6,0.5,3.3,0.5,5-0.1l2-0.7
		C46.9,88.6,48.8,85.9,49.2,82.9z"/>
	<path class="st2" d="M53.4,111c-3,0-5.9-1.7-7.6-4.4L32.5,85.4c-2.7-4.2-1.7-9.7,2-12.2c1.2-0.8,2.6-1.2,4.1-1.2
		c3,0,5.9,1.7,7.6,4.4l13.3,21.2c1.3,2,1.8,4.4,1.4,6.7c-0.4,2.3-1.6,4.3-3.4,5.5C56.2,110.6,54.8,111,53.4,111z M38.6,74
		c-1.1,0-2.1,0.3-3,0.9c-2.9,1.9-3.5,6.1-1.4,9.4l13.3,21.2c1.3,2.1,3.6,3.5,5.9,3.5c1.1,0,2.1-0.3,3-0.9c1.4-0.9,2.3-2.3,2.5-4.1
		c0.3-1.8-0.1-3.7-1.1-5.3L44.5,77.5C43.2,75.4,40.9,74,38.6,74z"/>
	<path class="st3" d="M106.2,83.4c0.7,2.1-0.4,4.4-2.5,5.1l-1.3,0.5c-2.1,0.7-4.4-0.4-5.1-2.5L74.4,20.3c-0.7-2.1,0.4-4.4,2.5-5.1
		l1.3-0.5c2.1-0.7,4.4,0.4,5.1,2.5L106.2,83.4z"/>
	<path class="st3" d="M46.8,74.2c1.4,4.2-0.8,8.7-4.9,10.2l-2,0.7c-4.2,1.4-8.7-0.8-10.2-4.9l-4.8-13.8c-1.4-4.2,0.8-8.7,4.9-10.2
		l2-0.7C36,54,40.5,56.2,42,60.3L46.8,74.2z"/>
	<path class="st4" d="M106.4,84.8l-1.3,0.5c-2.1,0.7-4.4-0.4-5.1-2.5L77.1,16.6c-0.2-0.5-0.2-0.9-0.2-1.4c-2.1,0.7-3.2,3-2.5,5.1
		l22.9,66.1c0.7,2.1,3,3.2,5.1,2.5l1.3-0.5C105.3,87.9,106.4,86.4,106.4,84.8C106.4,84.8,106.4,84.8,106.4,84.8z"/>
	<path class="st6" d="M117.1,15.8c-0.3,0-0.5-0.1-0.7-0.3c-0.4-0.4-0.4-1,0-1.4l6.4-6.4c0.4-0.4,1-0.4,1.4,0c0.4,0.4,0.4,1,0,1.4
		l-6.4,6.4C117.6,15.7,117.4,15.8,117.1,15.8z"/>
	<path class="st6" d="M111.9,12.8c-0.1,0-0.1,0-0.2,0c-0.5-0.1-0.9-0.6-0.8-1.2l1.3-6.4c0.1-0.5,0.6-0.9,1.2-0.8
		c0.5,0.1,0.9,0.6,0.8,1.2l-1.3,6.4C112.7,12.4,112.3,12.8,111.9,12.8z"/>
	<path class="st4" d="M44.2,79.3l-2,0.7c-4.2,1.4-8.7-0.8-10.2-4.9l-4.8-13.8c-0.4-1.1-0.5-2.2-0.4-3.3c-2.1,2.1-3,5.3-1.9,8.3
		l4.8,13.8c1.4,4.2,6,6.4,10.2,4.9l2-0.7c3.1-1.1,5.1-3.8,5.3-6.9C46.4,78.3,45.3,78.9,44.2,79.3z"/>
	<path class="st6" d="M120.1,21c-0.5,0-0.9-0.3-1-0.8c-0.1-0.5,0.2-1.1,0.8-1.2l6.4-1.3c0.5-0.1,1.1,0.2,1.2,0.8
		c0.1,0.5-0.2,1.1-0.8,1.2l-6.4,1.3C120.3,21,120.2,21,120.1,21z"/>
	<path class="st2" d="M100.7,90c-2.1,0-4-1.3-4.7-3.3L73.3,21c-0.4-1.2-0.4-2.6,0.2-3.8c0.6-1.2,1.6-2.1,2.8-2.5l1.3-0.5
		c0.5-0.2,1.1-0.3,1.6-0.3c2.1,0,4,1.3,4.7,3.3L106.7,83c0.4,1.2,0.4,2.6-0.2,3.8c-0.6,1.2-1.6,2.1-2.8,2.5l-1.3,0.5
		C101.8,89.9,101.3,90,100.7,90z M79.3,16c-0.3,0-0.7,0.1-1,0.2L77,16.6c-0.7,0.3-1.4,0.8-1.7,1.5c-0.3,0.7-0.4,1.5-0.1,2.3L97.9,86
		c0.4,1.2,1.5,2,2.8,2c0.3,0,0.7-0.1,1-0.2l1.3-0.5c0.7-0.3,1.4-0.8,1.7-1.5c0.3-0.7,0.4-1.5,0.1-2.3L82.1,18
		C81.7,16.8,80.5,16,79.3,16z"/>
	<path class="st2" d="M36.9,87c-3.9,0-7.3-2.5-8.6-6.1l-4.8-14c-1.6-4.8,0.9-10,5.6-11.6l2-0.7c1-0.3,1.9-0.5,3-0.5
		c3.9,0,7.3,2.5,8.6,6.1l4.8,14c0.8,2.3,0.6,4.8-0.4,7c-1.1,2.2-2.9,3.8-5.2,4.6l-2,0.7C38.9,86.8,37.9,87,36.9,87z M34.1,56
		c-0.8,0-1.6,0.1-2.3,0.4l-2,0.7c-3.7,1.3-5.6,5.3-4.4,9l4.8,14c1,2.9,3.7,4.8,6.7,4.8c0.8,0,1.6-0.1,2.3-0.4l2-0.7
		c1.8-0.6,3.2-1.9,4-3.6c0.8-1.7,0.9-3.6,0.3-5.4l-4.8-14C39.8,57.9,37.1,56,34.1,56z"/>
	<path class="st7" d="M63.3,46.7c-0.2,0-0.5-0.1-0.6-0.2c-0.4-0.4-0.5-1-0.1-1.4c0.1-0.1,5.3-6.3,8.2-14.7c0.2-0.5,0.7-0.8,1.3-0.6
		c0.5,0.2,0.8,0.8,0.6,1.3c-3,8.7-8.3,15.1-8.5,15.3C63.9,46.5,63.6,46.7,63.3,46.7z"/>
	<path class="st7" d="M55.1,101c-0.3,0-0.6-0.1-0.8-0.4l-5.2-8.1c-0.3-0.4-0.2-1,0.2-1.3c0.4-0.3,1-0.2,1.3,0.3l5.2,8.1
		c0.3,0.4,0.2,1-0.2,1.3C55.4,100.9,55.3,101,55.1,101z"/>
	<path class="st7" d="M42.7,76.3c-0.4,0-0.9-0.3-1-0.8c0,0-1-4-3.3-10.2c-2-5.4-5.6-4.4-5.8-4.4c-0.5,0.2-1.1-0.2-1.2-0.7
		c-0.2-0.5,0.2-1.1,0.7-1.2c0.1,0,5.6-1.5,8.2,5.6c2.3,6.3,3.3,10.3,3.4,10.4c0.1,0.5-0.2,1.1-0.7,1.2
		C42.8,76.3,42.7,76.3,42.7,76.3z"/>
	<path class="st8" d="M32.8,43.6c0-0.4-0.4-0.8-1-0.9L30,42.5c-0.5-0.1-1.1-0.6-1.1-1.1l-0.3-1.9c-0.1-0.5-0.5-1-0.9-1
		c-0.4,0-0.8,0.4-0.9,1l-0.3,1.9c-0.1,0.5-0.6,1.1-1.1,1.1l-1.9,0.3c-0.5,0.1-1,0.5-1,0.9c0,0.4,0.4,0.8,1,0.9l1.9,0.3
		c0.5,0.1,1.1,0.6,1.1,1.1l0.3,1.9c0.1,0.5,0.5,1,0.9,1c0.4,0,0.8-0.4,0.8-1l0.3-2.1c0.1-0.5,0.6-1,1.1-1.1l1.8-0.1
		C32.4,44.4,32.8,44,32.8,43.6z"/>
	<path class="st8" d="M83.5,102.7c0-0.4-0.4-0.8-1-0.9l-1.9-0.3c-0.5-0.1-1.1-0.6-1.1-1.1l-0.3-1.9c-0.1-0.5-0.5-1-0.9-1
		c-0.4,0-0.8,0.4-0.9,1l-0.3,1.9c-0.1,0.5-0.6,1.1-1.1,1.1l-1.9,0.3c-0.5,0.1-1,0.5-1,0.9s0.4,0.8,1,0.9l1.9,0.3
		c0.5,0.1,1.1,0.6,1.1,1.1l0.3,1.9c0.1,0.5,0.5,1,0.9,1c0.4,0,0.8-0.4,0.8-1l0.3-2.1c0.1-0.5,0.6-1,1.1-1.1l1.8-0.1
		C83.1,103.4,83.5,103.1,83.5,102.7z"/>
	<path class="st8" d="M106.8,30.7c0-0.4-0.4-0.8-1-0.9l-1.9-0.3c-0.5-0.1-1.1-0.6-1.1-1.1l-0.3-1.9c-0.1-0.5-0.5-1-0.9-1
		c-0.4,0-0.8,0.4-0.9,1l-0.3,1.9c-0.1,0.5-0.6,1.1-1.1,1.1l-1.9,0.3c-0.5,0.1-1,0.5-1,0.9s0.4,0.8,1,0.9l1.9,0.3
		c0.5,0.1,1.1,0.6,1.1,1.1l0.3,1.9c0.1,0.5,0.5,1,0.9,1c0.4,0,0.8-0.4,0.8-1l0.3-2.1c0.1-0.5,0.6-1,1.1-1.1l1.8-0.1
		C106.4,31.4,106.8,31.1,106.8,30.7z"/>
	<path class="st8" d="M42,25c-2.2,0-4-1.8-4-4c0-2.2,1.8-4,4-4c2.2,0,4,1.8,4,4C46,23.2,44.2,25,42,25z M42,19c-1.1,0-2,0.9-2,2
		c0,1.1,0.9,2,2,2c1.1,0,2-0.9,2-2C44,19.9,43.1,19,42,19z"/>
	<path class="st8" d="M112,63c-2.2,0-4-1.8-4-4c0-2.2,1.8-4,4-4c2.2,0,4,1.8,4,4C116,61.2,114.2,63,112,63z M112,57
		c-1.1,0-2,0.9-2,2c0,1.1,0.9,2,2,2c1.1,0,2-0.9,2-2C114,57.9,113.1,57,112,57z"/>
</g>
</svg>
